<svg xmlns="http://www.w3.org/2000/svg" viewBox="0 0 680 320" font-family="-apple-system, 'PingFang SC', 'Microsoft YaHei', sans-serif">
  <text x="340" y="34" text-anchor="middle" font-size="18" font-weight="700" fill="#2b2b2b">代码块折叠示意</text>

  <!-- 展开卡片 -->
  <g>
    <rect x="24" y="56" width="300" height="208" rx="14" fill="#ffffff" stroke="#d8d8d2"/>
    <path d="M24 70 a14 14 0 0 1 14 -14 h272 a14 14 0 0 1 14 14 v28 h-300 z" fill="#f3f4f1"/>
    <text x="40" y="87" font-size="13" font-family="monospace" fill="#666">代码 · python</text>
    <text x="300" y="87" text-anchor="end" font-size="12" fill="#356b54">收起</text>

    <rect x="40" y="120" width="70" height="9" rx="4" fill="#356b54"/>
    <rect x="118" y="120" width="120" height="9" rx="4" fill="#3a3a3a"/>
    <rect x="40" y="140" width="240" height="9" rx="4" fill="#3a3a3a"/>
    <rect x="56" y="160" width="60" height="9" rx="4" fill="#5b7db1"/>
    <rect x="124" y="160" width="150" height="9" rx="4" fill="#3a3a3a"/>
    <rect x="40" y="180" width="90" height="9" rx="4" fill="#356b54"/>
    <rect x="138" y="180" width="160" height="9" rx="4" fill="#3a3a3a"/>
    <rect x="56" y="200" width="200" height="9" rx="4" fill="#9aa0a6"/>
    <rect x="40" y="220" width="120" height="9" rx="4" fill="#3a3a3a"/>
    <rect x="40" y="240" width="180" height="9" rx="4" fill="#3a3a3a"/>
  </g>

  <!-- 折叠卡片 -->
  <g>
    <rect x="356" y="56" width="300" height="56" rx="14" fill="#ffffff" stroke="#d8d8d2"/>
    <path d="M356 70 a14 14 0 0 1 14 -14 h272 a14 14 0 0 1 14 14 v42 h-300 z" fill="#f3f4f1"/>
    <text x="372" y="90" font-size="13" font-family="monospace" fill="#666">代码 · python</text>
    <text x="632" y="90" text-anchor="end" font-size="12" fill="#356b54">▸ 展开</text>
  </g>

  <text x="340" y="300" text-anchor="middle" font-size="13" fill="#888">点摘要即可展开 / 收起（长代码默认收起）</text>
</svg>
